<?xml version="1.0" encoding="UTF-8" standalone="no"?>
<!DOCTYPE svg PUBLIC "-//W3C//DTD SVG 1.1//EN" "http://www.w3.org/Graphics/SVG/1.1/DTD/svg11.dtd">
<svg width="100%" height="100%" viewBox="0 0 817 183" version="1.1" xmlns="http://www.w3.org/2000/svg" xmlns:xlink="http://www.w3.org/1999/xlink" xml:space="preserve" xmlns:serif="http://www.serif.com/" style="fill-rule:evenodd;clip-rule:evenodd;stroke-linejoin:round;stroke-miterlimit:2;">
    <g transform="matrix(1,0,0,1,-933.754,-1254.68)">
        <g transform="matrix(4.16667,0,0,4.16667,0,0)">
            <rect x="372.934" y="309.282" width="1" height="20.443" style="fill:rgb(253,183,26);fill-rule:nonzero;"/>
        </g>
        <g transform="matrix(4.16667,0,0,4.16667,0,0)">
            <path d="M318.472,316.745C318.472,318.198 317.717,318.605 316.613,318.605L314.841,318.605L314.841,312.245L316.613,312.245C317.717,312.245 318.472,312.651 318.472,314.103L318.472,316.745ZM321.841,317.21L321.841,313.58C321.841,310.501 319.808,309.282 316.729,309.282L311.473,309.282L311.473,329.612L314.841,329.612L314.841,321.509L316.526,321.509L319.111,329.612L322.538,329.612L319.634,320.986C321.028,320.376 321.841,319.157 321.841,317.21Z" style="fill:rgb(0,88,165);fill-rule:nonzero;"/>
        </g>
        <g transform="matrix(4.16667,0,0,4.16667,0,0)">
            <path d="M331.772,318.489L329.391,317.153C328.433,316.601 328.083,316.136 328.083,315.09L328.083,313.697C328.083,312.418 328.81,311.953 329.797,311.953C330.785,311.953 331.511,312.418 331.511,313.697L331.511,316.542L334.822,316.542L334.822,313.232C334.822,310.211 332.614,309.049 329.826,309.049L329.768,309.049C326.98,309.049 324.773,310.211 324.773,313.232L324.773,315.904C324.773,318.024 325.906,318.953 327.881,320.085L330.233,321.421C331.249,321.974 331.569,322.496 331.569,323.542L331.569,325.139C331.569,326.388 330.843,326.94 329.826,326.94C328.81,326.94 328.083,326.388 328.083,325.139L328.083,322.061L324.773,322.061L324.773,325.604C324.773,328.77 326.719,329.844 329.797,329.844L329.855,329.844C332.934,329.844 334.88,328.741 334.88,325.604L334.88,322.67C334.88,320.493 333.718,319.592 331.772,318.489Z" style="fill:rgb(0,88,165);fill-rule:nonzero;"/>
        </g>
        <g transform="matrix(4.16667,0,0,4.16667,0,0)">
            <rect x="338.161" y="309.282" width="3.369" height="20.33" style="fill:rgb(0,88,165);fill-rule:nonzero;"/>
        </g>
        <g transform="matrix(4.16667,0,0,4.16667,0,0)">
            <path d="M352.216,324.79C352.216,326.243 351.461,326.65 350.358,326.65L348.644,326.65L348.644,312.245L350.358,312.245C351.461,312.245 352.216,312.651 352.216,314.103L352.216,324.79ZM350.474,309.282L345.275,309.282L345.275,329.612L350.474,329.612C353.553,329.612 355.585,328.392 355.585,325.314L355.585,313.58C355.585,310.501 353.553,309.282 350.474,309.282Z" style="fill:rgb(0,88,165);fill-rule:nonzero;"/>
        </g>
        <g transform="matrix(4.16667,0,0,4.16667,0,0)">
            <path d="M362.467,326.65L362.467,320.783L367.114,320.783L367.114,317.821L362.467,317.821L362.467,312.245L368.014,312.245L368.014,309.282L359.098,309.282L359.098,329.612L368.101,329.612L368.101,326.65L362.467,326.65Z" style="fill:rgb(0,88,165);fill-rule:nonzero;"/>
        </g>
        <g transform="matrix(4.16667,0,0,4.16667,0,0)">
            <path d="M272.734,316.745C272.734,318.198 271.979,318.605 270.875,318.605L269.104,318.605L269.104,312.245L270.875,312.245C271.979,312.245 272.734,312.651 272.734,314.103L272.734,316.745ZM276.103,317.21L276.103,313.58C276.103,310.501 274.07,309.282 270.992,309.282L265.735,309.282L265.735,329.612L269.104,329.612L269.104,321.509L270.788,321.509L273.373,329.612L276.8,329.612L273.896,320.986C275.29,320.376 276.103,319.157 276.103,317.21Z" style="fill:rgb(0,88,165);fill-rule:nonzero;"/>
        </g>
        <g transform="matrix(4.16667,0,0,4.16667,0,0)">
            <rect x="279.674" y="309.282" width="3.369" height="20.33" style="fill:rgb(0,88,165);fill-rule:nonzero;"/>
        </g>
        <g transform="matrix(4.16667,0,0,4.16667,0,0)">
            <path d="M291.349,324.355L288.996,309.282L285.569,309.282L289.403,329.612L293.12,329.612L296.954,309.282L293.701,309.282L291.349,324.355Z" style="fill:rgb(0,88,165);fill-rule:nonzero;"/>
        </g>
        <g transform="matrix(4.16667,0,0,4.16667,0,0)">
            <path d="M302.732,320.783L307.378,320.783L307.378,317.821L302.732,317.821L302.732,312.245L308.279,312.245L308.279,309.282L299.363,309.282L299.363,329.612L308.366,329.612L308.366,326.65L302.732,326.65L302.732,320.783Z" style="fill:rgb(0,88,165);fill-rule:nonzero;"/>
        </g>
        <g transform="matrix(4.16667,0,0,4.16667,0,0)">
            <path d="M233.422,344.977L259.734,332.548L259.734,331.324L233.422,337.296L233.422,344.977Z" style="fill:rgb(253,183,26);fill-rule:nonzero;"/>
        </g>
        <g transform="matrix(4.16667,0,0,4.16667,0,0)">
            <path d="M259.734,301.122L224.101,306.223L224.101,339.412L259.734,331.324L259.734,301.122Z" style="fill:rgb(0,88,165);fill-rule:nonzero;"/>
        </g>
        <g transform="matrix(4.16667,0,0,4.16667,0,0)">
            <path d="M253.785,325.562C253.785,328.702 251.75,329.865 248.668,329.865L248.611,329.865C245.528,329.865 243.494,328.731 243.494,325.562L243.494,313.352C243.494,310.328 245.528,309.049 248.611,309.049L248.668,309.049C251.75,309.049 253.785,310.328 253.785,313.352L253.785,317.073L250.413,317.073L250.413,313.875C250.413,312.451 249.715,312.014 248.64,312.014C247.563,312.014 246.866,312.451 246.866,313.875L246.866,325.038C246.866,326.463 247.563,326.899 248.64,326.899C249.715,326.899 250.413,326.463 250.413,325.038L250.413,321.346L253.785,321.346L253.785,325.562Z" style="fill:white;fill-rule:nonzero;"/>
        </g>
        <g transform="matrix(4.16667,0,0,4.16667,0,0)">
            <path d="M236.912,309.282L236.912,325.038C236.912,326.492 236.272,326.899 235.167,326.899C234.062,326.899 233.422,326.492 233.422,325.038L233.422,309.282L230.05,309.282L230.05,325.562C230.05,328.731 232.027,329.865 235.109,329.865L235.225,329.865C238.307,329.865 240.283,328.702 240.283,325.562L240.283,309.282L236.912,309.282Z" style="fill:white;fill-rule:nonzero;"/>
        </g>
        <g transform="matrix(4.16667,0,0,4.16667,0,0)">
            <path d="M381.544,322.276L385.144,322.276L384.949,323.679L379.827,323.679L379.827,314.696L381.544,314.696L381.544,322.276Z" style="fill:rgb(0,88,165);fill-rule:nonzero;"/>
        </g>
        <g transform="matrix(4.16667,0,0,4.16667,0,0)">
            <path d="M387.991,323.679L386.327,323.679L386.327,316.802L387.991,316.802L387.991,323.679ZM388.199,314.332C388.199,314.891 387.77,315.333 387.146,315.333C386.535,315.333 386.106,314.891 386.106,314.332C386.106,313.76 386.535,313.318 387.146,313.318C387.77,313.318 388.199,313.76 388.199,314.332Z" style="fill:rgb(0,88,165);fill-rule:nonzero;"/>
        </g>
        <g transform="matrix(4.16667,0,0,4.16667,0,0)">
            <path d="M394.309,320.234C394.309,318.401 393.764,317.855 392.971,317.855C392.373,317.855 391.931,318.258 391.605,318.791L391.605,321.833C391.905,322.328 392.36,322.626 392.88,322.626C393.725,322.626 394.309,321.963 394.309,320.234ZM396.052,320.234C396.052,322.379 395.025,323.874 393.335,323.874C392.581,323.874 391.957,323.537 391.515,322.977L391.411,323.679L389.941,323.679L389.941,314.046L391.605,313.864L391.605,317.582C392.048,316.971 392.711,316.607 393.504,316.607C395.103,316.607 396.052,317.933 396.052,320.234Z" style="fill:rgb(0,88,165);fill-rule:nonzero;"/>
        </g>
        <g transform="matrix(4.16667,0,0,4.16667,0,0)">
            <path d="M401.422,316.711L401.136,318.324C400.928,318.271 400.771,318.245 400.524,318.245C399.692,318.245 399.264,318.856 399.003,320.013L399.003,323.679L397.339,323.679L397.339,316.802L398.782,316.802L398.938,318.154C399.264,317.166 399.927,316.62 400.732,316.62C400.979,316.62 401.2,316.646 401.422,316.711Z" style="fill:rgb(0,88,165);fill-rule:nonzero;"/>
        </g>
        <g transform="matrix(4.16667,0,0,4.16667,0,0)">
            <path d="M405.568,321.821L405.568,320.429L404.879,320.429C403.8,320.429 403.267,320.82 403.267,321.625C403.267,322.288 403.605,322.665 404.242,322.665C404.814,322.665 405.256,322.367 405.568,321.821ZM407.726,322.744L407.375,323.848C406.608,323.784 406.114,323.524 405.854,322.847C405.36,323.576 404.619,323.874 403.787,323.874C402.422,323.874 401.577,323.003 401.577,321.755C401.577,320.26 402.695,319.454 404.697,319.454L405.568,319.454L405.568,319.064C405.568,318.167 405.165,317.869 404.281,317.869C403.813,317.869 403.15,317.998 402.448,318.232L402.071,317.101C402.916,316.776 403.787,316.607 404.555,316.607C406.4,316.607 407.206,317.453 407.206,318.973L407.206,321.86C407.206,322.418 407.389,322.614 407.726,322.744Z" style="fill:rgb(0,88,165);fill-rule:nonzero;"/>
        </g>
        <g transform="matrix(4.16667,0,0,4.16667,0,0)">
            <path d="M413.082,316.711L412.796,318.324C412.588,318.271 412.432,318.245 412.184,318.245C411.352,318.245 410.924,318.856 410.663,320.013L410.663,323.679L408.999,323.679L408.999,316.802L410.442,316.802L410.599,318.154C410.924,317.166 411.587,316.62 412.392,316.62C412.64,316.62 412.86,316.646 413.082,316.711Z" style="fill:rgb(0,88,165);fill-rule:nonzero;"/>
        </g>
        <g transform="matrix(4.16667,0,0,4.16667,0,0)">
            <path d="M417.787,323.705C417.267,325.318 416.253,326.358 414.212,326.513L414.043,325.304C415.408,325.096 415.85,324.655 416.24,323.679L415.668,323.679L413.484,316.802L415.252,316.802L416.747,322.575L418.308,316.802L420.023,316.802L417.787,323.705Z" style="fill:rgb(0,88,165);fill-rule:nonzero;"/>
        </g>
    </g>
</svg>
