<?xml version="1.0" encoding="UTF-8" standalone="no"?>
<!DOCTYPE svg PUBLIC "-//W3C//DTD SVG 1.1//EN" "http://www.w3.org/Graphics/SVG/1.1/DTD/svg11.dtd">
<svg width="100%" height="100%" viewBox="0 0 53 50" version="1.1" xmlns="http://www.w3.org/2000/svg" xmlns:xlink="http://www.w3.org/1999/xlink" xml:space="preserve" xmlns:serif="http://www.serif.com/" style="fill-rule:evenodd;clip-rule:evenodd;stroke-linejoin:round;stroke-miterlimit:2;">
    <g transform="matrix(1,0,0,1,-5.5,-7.2)">
        <path d="M43.2,56.8L10.1,56.8C7.5,56.8 5.5,54.7 5.5,52.2L5.5,31.6C5.5,29 7.6,27 10.1,27L34.6,27L34.6,29L10.1,29C8.6,29 7.5,30.2 7.5,31.6L7.5,52.2C7.5,53.7 8.7,54.8 10.1,54.8L43.2,54.8C44.7,54.8 45.8,53.6 45.8,52.2L45.8,31.6C45.8,30.8 45.4,30 44.7,29.5L45.9,27.9C47.1,28.8 47.8,30.1 47.8,31.6L47.8,52.2C47.8,54.7 45.7,56.8 43.2,56.8Z" style="fill-rule:nonzero;"/>
    </g>
    <g transform="matrix(1,0,0,1,-5.5,-7.2)">
        <path d="M32.5,40C31.5,40 30.4,39.7 29.6,39C28.2,37.9 27.6,36.1 28.1,34.5C28.4,33.7 29.1,32.9 30.1,31.7L30.7,31C33.1,28.4 36.4,24 36.4,24C36.7,23.6 37.4,23.5 37.8,23.8C38.2,24.1 38.3,24.8 38,25.2C37.9,25.4 34.6,29.7 32.2,32.4L31.6,33C30.8,33.9 30.1,34.6 30,35C29.7,36 30.2,36.9 30.9,37.3C31.6,37.8 32.7,38.2 33.8,37.6C34.6,37.1 36.3,35.7 36.9,35.2L50.3,22.6L44.2,14.1L29.4,18.4L21.8,28.4C21.5,28.8 20.8,28.9 20.4,28.6C20,28.3 19.9,27.6 20.2,27.2L28.2,16.7L45,11.9L52.9,23L38.2,36.8C38.1,36.9 35.9,38.8 34.8,39.5C34.1,39.8 33.3,40 32.5,40Z" style="fill-rule:nonzero;"/>
    </g>
    <g transform="matrix(1,0,0,1,-5.5,-7.2)">
        <path d="M54.3,23.6L44.6,10.2L48.8,7.2L58.5,20.6L54.3,23.6ZM47.4,10.7L54.7,20.9L55.7,20.2L48.4,10L47.4,10.7Z" style="fill-rule:nonzero;"/>
    </g>
    <g transform="matrix(1,0,0,1,-5.5,-7.2)">
        <rect x="6.7" y="45.8" width="40" height="5.6"/>
    </g>
</svg>
